<?xml version="1.0" encoding="utf-8"?>
<!-- Generator: Adobe Illustrator 16.2.0, SVG Export Plug-In . SVG Version: 6.00 Build 0)  -->
<!DOCTYPE svg PUBLIC "-//W3C//DTD SVG 1.1//EN" "http://www.w3.org/Graphics/SVG/1.1/DTD/svg11.dtd">
<svg version="1.1" id="Layer_1" xmlns="http://www.w3.org/2000/svg" xmlns:xlink="http://www.w3.org/1999/xlink" x="0px" y="0px"
	 width="63.992px" height="61.992px" viewBox="0 0 63.992 61.992" enable-background="new 0 0 63.992 61.992" xml:space="preserve">
<path fill="#FFFFFF" d="M47.036,10.188c0-2.209-1.791-4-4-4H20.957c-2.209,0-4,1.791-4,4v45.617h30.079V10.188z M38.966,9.787h4v4
	h-4V9.787z M38.966,15.781h4v4h-4V15.781z M32.987,9.787h4v4h-4V9.787z M32.987,15.781h4v4h-4V15.781z M27.008,9.787h4v4h-4V9.787z
	 M27.008,15.781h4v4h-4V15.781z M21.027,9.787h4v4h-4V9.787z M21.027,15.781h4v4h-4V15.781z M25.027,51.8h-4v-6h4V51.8z
	 M25.027,43.758h-4v-4h4V43.758z M25.027,37.763h-4v-4h4V37.763z M25.027,31.77h-4v-4h4V31.77z M21.027,25.775v-4h4v4H21.027z
	 M31.008,43.758h-4v-4h4V43.758z M31.008,37.763h-4v-4h4V37.763z M31.008,31.77h-4v-4h4V31.77z M27.008,25.775v-4h4v4H27.008z
	 M36.987,43.758h-4v-4h4V43.758z M36.987,37.763h-4v-4h4V37.763z M36.987,31.77h-4v-4h4V31.77z M32.987,25.775v-4h4v4H32.987z
	 M42.966,51.8h-4v-6h4V51.8z M42.966,43.758h-4v-4h4V43.758z M42.966,37.763h-4v-4h4V37.763z M42.966,31.77h-4v-4h4V31.77z
	 M38.966,25.775v-4h4v4H38.966z"/>
</svg>
