<?xml version="1.0" encoding="utf-8"?>
<!-- Generator: Adobe Illustrator 15.1.0, SVG Export Plug-In  -->
<!DOCTYPE svg PUBLIC "-//W3C//DTD SVG 1.1//EN" "http://www.w3.org/Graphics/SVG/1.1/DTD/svg11.dtd" [
	<!ENTITY ns_flows "http://ns.adobe.com/Flows/1.0/">
]>
<svg version="1.1"
	 xmlns="http://www.w3.org/2000/svg" xmlns:xlink="http://www.w3.org/1999/xlink" xmlns:a="http://ns.adobe.com/AdobeSVGViewerExtensions/3.0/"
	 x="0px" y="0px" width="64px" height="62px" viewBox="-14.824 -8.979 64 62" enable-background="new -14.824 -8.979 64 62"
	 xml:space="preserve">
<defs>
</defs>
<path fill="#CD4F29" d="M21.699,40.353v2.68h-3.418h-3.418v-2.68H21.699 M23.699,38.353H12.864c0,2.742,0,4.924,0,4.924
	c0,1.088,0.385,1.756,1.84,1.756h3.578h3.578c1.455,0,1.84-0.668,1.84-1.756C23.699,43.277,23.699,41.095,23.699,38.353
	L23.699,38.353z"/>
<path fill="#CD4F29" d="M18.281,7.949c6.088,0,11.043,4.954,11.043,11.042c0,3.605-1.772,6.991-4.742,9.056
	c-1.33,0.927-2.883,2.771-2.883,4.924v1.428h-6.836V32.97c0-2.771-2.398-4.586-2.882-4.924c-2.97-2.064-4.743-5.45-4.743-9.056
	C7.238,12.903,12.192,7.949,18.281,7.949 M18.281,5.949c-7.205,0-13.043,5.839-13.043,13.042c0,4.437,2.217,8.345,5.602,10.698
	c0.635,0.443,2.024,1.729,2.024,3.281c0,0.178,0,3.117,0,3.428h10.835c0-0.311,0-3.25,0-3.428c0-1.553,1.39-2.838,2.025-3.281
	c3.383-2.354,5.6-6.262,5.6-10.698C31.324,11.788,25.484,5.949,18.281,5.949L18.281,5.949z"/>
<path fill="none" stroke="#FFFFFF" stroke-width="2" stroke-miterlimit="10" d="M28.145,32.458c4.482-3.121,7.42-8.301,7.42-14.175
	C35.564,8.738,27.826,1,18.281,1C8.737,1,1,8.738,1,18.283c0,5.875,2.936,11.054,7.42,14.175"/>
</svg>
