<?xml version="1.0" encoding="utf-8"?>
<!-- Generator: Adobe Illustrator 16.2.0, SVG Export Plug-In . SVG Version: 6.00 Build 0)  -->
<!DOCTYPE svg PUBLIC "-//W3C//DTD SVG 1.1//EN" "http://www.w3.org/Graphics/SVG/1.1/DTD/svg11.dtd">
<svg version="1.1" id="Layer_1" xmlns="http://www.w3.org/2000/svg" xmlns:xlink="http://www.w3.org/1999/xlink" x="0px" y="0px"
	 width="63.992px" height="61.992px" viewBox="0 0 63.992 61.992" enable-background="new 0 0 63.992 61.992" xml:space="preserve">
<g>
	<path fill="#FFFFFF" d="M36.523,49.332v2.68h-3.418h-3.418v-2.68H36.523 M38.523,47.332H27.688c0,2.742,0,4.924,0,4.924
		c0,1.088,0.385,1.756,1.84,1.756h3.578h3.578c1.455,0,1.84-0.668,1.84-1.756C38.523,52.256,38.523,50.074,38.523,47.332
		L38.523,47.332z"/>
</g>
<g>
	<path fill="#FFFFFF" d="M33.105,16.928c6.089,0,11.043,4.954,11.043,11.042c0,3.605-1.772,6.991-4.742,9.056
		c-1.33,0.926-2.883,2.771-2.883,4.923v1.428h-6.836v-1.428c0-2.771-2.398-4.586-2.882-4.923c-2.97-2.065-4.743-5.451-4.743-9.056
		C22.062,21.882,27.016,16.928,33.105,16.928 M33.105,14.928c-7.204,0-13.043,5.839-13.043,13.042c0,4.436,2.217,8.344,5.602,10.698
		c0.635,0.443,2.024,1.729,2.024,3.281c0,0.178,0,3.117,0,3.428h10.836c0-0.311,0-3.25,0-3.428c0-1.553,1.389-2.838,2.025-3.281
		c3.383-2.354,5.6-6.262,5.6-10.698C46.148,20.767,40.309,14.928,33.105,14.928L33.105,14.928z"/>
</g>
<path fill="none" stroke="#FFFFFF" stroke-width="2" stroke-miterlimit="10" d="M42.969,41.438c4.482-3.121,7.42-8.301,7.42-14.176
	c0-9.545-7.738-17.283-17.283-17.283c-9.545,0-17.282,7.738-17.282,17.283c0,5.875,2.936,11.055,7.42,14.176"/>
</svg>
