<?xml version="1.0" encoding="utf-8"?>
<!-- Generator: Adobe Illustrator 16.2.0, SVG Export Plug-In . SVG Version: 6.00 Build 0)  -->
<!DOCTYPE svg PUBLIC "-//W3C//DTD SVG 1.1//EN" "http://www.w3.org/Graphics/SVG/1.1/DTD/svg11.dtd">
<svg version="1.1" id="Layer_1" xmlns="http://www.w3.org/2000/svg" xmlns:xlink="http://www.w3.org/1999/xlink" x="0px" y="0px"
	 width="22px" height="22px" viewBox="0 0 63.992 61.992" enable-background="new 0 0 63.992 61.992" xml:space="preserve">
<path fill="#FFFFFF" d="M57.829,27.813c0-3.452-2.799-6.25-6.25-6.25c-1.331,0-2.562,0.419-3.575,1.128l-10.527-7.682
	c0.277-0.707,0.436-1.474,0.436-2.28c0-3.452-2.799-6.25-6.25-6.25c-3.452,0-6.25,2.798-6.25,6.25c0,0.562,0.081,1.103,0.22,1.621
	l-8.718,7.265c-0.999-0.677-2.204-1.073-3.502-1.073c-3.452,0-6.25,2.798-6.25,6.25c0,2.97,2.073,5.451,4.85,6.087l0.311,4.248
	c-2.466,0.837-4.244,3.166-4.244,5.915c0,3.452,2.798,6.25,6.25,6.25c2.573,0,4.781-1.556,5.74-3.777l23.202,1.383
	c0.784,2.557,3.161,4.415,5.976,4.415c3.451,0,6.25-2.797,6.25-6.249c0-2.605-1.596-4.837-3.861-5.774l0.623-5.265
	C55.389,33.686,57.829,31.036,57.829,27.813z M51.579,24.563c1.792,0,3.25,1.458,3.25,3.25s-1.458,3.25-3.25,3.25
	s-3.25-1.458-3.25-3.25S49.787,24.563,51.579,24.563z M31.662,9.479c1.792,0,3.25,1.458,3.25,3.25s-1.458,3.25-3.25,3.25
	s-3.25-1.458-3.25-3.25S29.87,9.479,31.662,9.479z M10.162,26.792c0-1.792,1.458-3.25,3.25-3.25s3.25,1.458,3.25,3.25
	s-1.458,3.25-3.25,3.25S10.162,28.584,10.162,26.792z M14.329,46.292c-1.792,0-3.25-1.458-3.25-3.25s1.458-3.25,3.25-3.25
	s3.25,1.458,3.25,3.25S16.121,46.292,14.329,46.292z M43.111,43.883l-22.558-1.344c-0.231-2.888-2.42-5.215-5.241-5.662
	l-0.296-4.051c2.673-0.709,4.646-3.138,4.646-6.034c0-1.065-0.268-2.068-0.738-2.946l8.197-6.832c1.14,1.208,2.75,1.965,4.542,1.965
	c1.561,0,2.984-0.576,4.08-1.522l10.28,7.502c-0.44,0.856-0.693,1.824-0.693,2.853c0,2.641,1.64,4.894,3.954,5.809l-0.617,5.221
	C45.881,39.099,43.628,41.182,43.111,43.883z M49.246,48.313c-1.792,0-3.25-1.458-3.25-3.25s1.458-3.25,3.25-3.25
	s3.25,1.458,3.25,3.25S51.038,48.313,49.246,48.313z"/>
</svg>
