<?xml version="1.0" encoding="utf-8"?>
<!-- Generator: Adobe Illustrator 15.1.0, SVG Export Plug-In  -->
<!DOCTYPE svg PUBLIC "-//W3C//DTD SVG 1.1//EN" "http://www.w3.org/Graphics/SVG/1.1/DTD/svg11.dtd" [
	<!ENTITY ns_flows "http://ns.adobe.com/Flows/1.0/">
]>
<svg version="1.1"
	 xmlns="http://www.w3.org/2000/svg" xmlns:xlink="http://www.w3.org/1999/xlink" xmlns:a="http://ns.adobe.com/AdobeSVGViewerExtensions/3.0/"
	 x="0px" y="0px" width="51px" height="45px" viewBox="0 0 51 45" enable-background="new 0 0 51 45" xml:space="preserve">
<defs>
</defs>
<g>
	<defs>
		<rect id="SVGID_1_" width="50.667" height="44.833"/>
	</defs>
	<clipPath id="SVGID_2_">
		<use xlink:href="#SVGID_1_"  overflow="visible"/>
	</clipPath>
	<path clip-path="url(#SVGID_2_)" fill="#CE4F28" d="M50.667,21.334c0-3.453-2.799-6.25-6.25-6.25c-1.331,0-2.562,0.418-3.575,1.127
		L30.314,8.53c0.277-0.707,0.436-1.474,0.436-2.28C30.75,2.798,27.951,0,24.5,0c-3.452,0-6.25,2.798-6.25,6.25
		c0,0.562,0.081,1.103,0.22,1.621l-8.718,7.265c-0.999-0.677-2.204-1.073-3.502-1.073c-3.452,0-6.25,2.797-6.25,6.25
		c0,2.969,2.073,5.45,4.85,6.086l0.311,4.248c-2.467,0.837-4.244,3.166-4.244,5.916c0,3.451,2.798,6.25,6.25,6.25
		c2.573,0,4.781-1.557,5.74-3.778l23.201,1.383c0.784,2.557,3.161,4.415,5.976,4.415c3.451,0,6.25-2.797,6.25-6.249
		c0-2.604-1.596-4.837-3.861-5.774l0.623-5.265C48.227,27.206,50.667,24.556,50.667,21.334 M44.417,18.084
		c1.792,0,3.25,1.458,3.25,3.25s-1.458,3.249-3.25,3.249s-3.25-1.457-3.25-3.249S42.625,18.084,44.417,18.084 M24.5,3
		c1.792,0,3.25,1.458,3.25,3.25S26.292,9.5,24.5,9.5s-3.25-1.458-3.25-3.25S22.708,3,24.5,3 M3,20.313c0-1.792,1.458-3.25,3.25-3.25
		s3.25,1.458,3.25,3.25s-1.458,3.25-3.25,3.25S3,22.105,3,20.313 M7.167,39.813c-1.792,0-3.25-1.458-3.25-3.25s1.458-3.25,3.25-3.25
		s3.25,1.458,3.25,3.25S8.959,39.813,7.167,39.813 M35.949,37.403L13.392,36.06c-0.231-2.888-2.421-5.215-5.242-5.662l-0.296-4.051
		c2.673-0.709,4.646-3.138,4.646-6.034c0-1.066-0.268-2.069-0.738-2.946l8.197-6.832c1.139,1.208,2.75,1.965,4.541,1.965
		c1.561,0,2.984-0.576,4.08-1.522l10.28,7.502c-0.44,0.856-0.693,1.825-0.693,2.854c0,2.64,1.64,4.894,3.954,5.809l-0.617,5.221
		C38.719,32.619,36.466,34.702,35.949,37.403 M42.084,41.834c-1.792,0-3.25-1.458-3.25-3.25s1.458-3.25,3.25-3.25
		s3.25,1.458,3.25,3.25S43.876,41.834,42.084,41.834"/>
</g>
</svg>
