<?xml version="1.0" encoding="utf-8"?>
<!-- Generator: Adobe Illustrator 16.2.0, SVG Export Plug-In . SVG Version: 6.00 Build 0)  -->
<!DOCTYPE svg PUBLIC "-//W3C//DTD SVG 1.1//EN" "http://www.w3.org/Graphics/SVG/1.1/DTD/svg11.dtd">
<svg version="1.1" id="Layer_1" xmlns="http://www.w3.org/2000/svg" xmlns:xlink="http://www.w3.org/1999/xlink" x="0px" y="0px"
	 width="63.992px" height="61.992px" viewBox="0 0 63.992 61.992" enable-background="new 0 0 63.992 61.992" xml:space="preserve">
<rect x="86.666" width="63.992" height="61.992"/>
<path fill="#FFFFFF" d="M127.31,47.484l-1.47-5.931l1.093-1.911l-3.056-12.035h3.866v-1.321h-4.199l-0.396-1.574l-2.216-6.117
	c1.806-0.889,3.055-2.744,3.055-4.887c0-3.005-2.444-5.448-5.447-5.448c-3.004,0-5.447,2.442-5.447,5.448
	c0,2.143,1.247,3.998,3.055,4.887l-2.216,6.117l-0.396,1.574h-4.689v1.321h4.356l-2.93,12.249l1.23,2.153l-1.359,5.493l0.32,0.079
	l1.276-5.157l0.034,0.061l3.744-14.877h6.041l3.873,14.664l0.173-0.303l1.385,5.595L127.31,47.484z M114.742,13.709
	c0-2.095,1.703-3.797,3.797-3.797c2.093,0,3.797,1.702,3.797,3.797c0,2.093-1.704,3.797-3.797,3.797
	C116.445,17.506,114.742,15.803,114.742,13.709z M115.86,26.287l1.865-7.198c0.266,0.041,0.537,0.068,0.813,0.068
	s0.546-0.027,0.813-0.068l1.866,7.198H115.86z"/>
<path fill="#FFFFFF" d="M39.941,49.055l-1.47-5.932l1.093-1.91l-3.056-12.035h3.866v-1.321h-4.199l-0.396-1.574l-2.216-6.117
	c1.806-0.889,3.055-2.744,3.055-4.887c0-3.005-2.444-5.448-5.447-5.448c-3.004,0-5.447,2.442-5.447,5.448
	c0,2.143,1.247,3.998,3.055,4.887l-2.216,6.117l-0.396,1.574h-4.689v1.321h4.356l-2.93,12.248l1.23,2.154l-1.359,5.492l0.32,0.08
	l1.276-5.158l0.034,0.061l3.744-14.877h6.041l3.873,14.664l0.173-0.303l1.385,5.594L39.941,49.055z M27.374,15.279
	c0-2.095,1.703-3.797,3.797-3.797c2.093,0,3.797,1.702,3.797,3.797c0,2.093-1.704,3.797-3.797,3.797
	C29.077,19.076,27.374,17.373,27.374,15.279z M28.492,27.857l1.865-7.198c0.266,0.041,0.537,0.068,0.813,0.068
	s0.546-0.027,0.813-0.068l1.866,7.198H28.492z"/>
</svg>
