<?xml version="1.0" encoding="utf-8"?>
<!-- Generator: Adobe Illustrator 15.1.0, SVG Export Plug-In  -->
<!DOCTYPE svg PUBLIC "-//W3C//DTD SVG 1.1//EN" "http://www.w3.org/Graphics/SVG/1.1/DTD/svg11.dtd" [
	<!ENTITY ns_flows "http://ns.adobe.com/Flows/1.0/">
]>
<svg version="1.1"
	 xmlns="http://www.w3.org/2000/svg" xmlns:xlink="http://www.w3.org/1999/xlink" xmlns:a="http://ns.adobe.com/AdobeSVGViewerExtensions/3.0/"
	 x="0px" y="0px" width="64px" height="62px" viewBox="-21.478 -9.831 64 62" enable-background="new -21.478 -9.831 64 62"
	 xml:space="preserve">
<defs>
</defs>
<path fill="#CD4F29" d="M18.463,39.224l-1.471-5.932l1.094-1.91L15.03,19.347h3.866v-1.321h-4.199l-0.396-1.574l-2.217-6.117
	c1.807-0.889,3.056-2.744,3.056-4.887C15.14,2.443,12.696,0,9.693,0C6.689,0,4.246,2.442,4.246,5.448
	c0,2.143,1.247,3.998,3.055,4.887l-2.216,6.117l-0.396,1.574H0v1.321h4.356l-2.93,12.248l1.23,2.154l-1.359,5.492l0.32,0.08
	l1.276-5.158l0.034,0.061l3.744-14.877h6.041l3.873,14.664l0.174-0.303l1.385,5.594L18.463,39.224z M5.896,5.448
	c0-2.095,1.703-3.797,3.797-3.797c2.093,0,3.797,1.702,3.797,3.797c0,2.093-1.704,3.797-3.797,3.797
	C7.599,9.245,5.896,7.542,5.896,5.448z M7.014,18.026l1.865-7.198c0.266,0.041,0.537,0.068,0.813,0.068s0.546-0.027,0.813-0.068
	l1.867,7.198H7.014z"/>
</svg>
