<?xml version="1.0" encoding="utf-8"?>
<!-- Generator: Adobe Illustrator 16.2.0, SVG Export Plug-In . SVG Version: 6.00 Build 0)  -->
<!DOCTYPE svg PUBLIC "-//W3C//DTD SVG 1.1//EN" "http://www.w3.org/Graphics/SVG/1.1/DTD/svg11.dtd">
<svg version="1.1" id="Layer_1" xmlns="http://www.w3.org/2000/svg" xmlns:xlink="http://www.w3.org/1999/xlink" x="0px" y="0px"
	 width="60px" height="70px" viewBox="0 0 60 70" enable-background="new 0 0 60 70" xml:space="preserve">
<g>
	<polygon fill="#FFFFFF" points="8.271,13.025 6.256,17.169 9.031,15.945 	"/>
	<polygon fill="#FFFFFF" points="5.281,20.412 4.652,24.977 6.91,22.952 	"/>
	<polygon fill="#FFFFFF" points="5.541,32.869 7.064,30.246 4.729,28.333 	"/>
	<path fill="#FFFFFF" d="M10.266,16.792l-4.662,2.057l2.807,4.307C8.703,20.909,9.34,18.77,10.266,16.792z"/>
	<path fill="#FFFFFF" d="M8.225,26.002c0-0.922,0.058-1.831,0.169-2.723l-3.843,3.427l4.037,3.267
		C8.35,28.685,8.225,27.358,8.225,26.002z"/>
	<path fill="#FFFFFF" d="M9.178,33.073c0.068-0.069,0.138-0.138,0.207-0.208c-0.025-0.075-0.052-0.15-0.078-0.227
		c-0.291-0.874-0.525-1.753-0.703-2.634l-2.555,4.47l1.195,0.446C7.902,34.317,8.547,33.7,9.178,33.073z"/>
	<path fill="#FFFFFF" d="M56.801,65.08c1.547-0.746,2.615-2.328,2.615-4.158C59.416,62.752,58.348,64.334,56.801,65.08z"/>
	<path fill="#FFFFFF" d="M59.416,60.92c0-0.037-0.002-0.076-0.002-0.115l-0.047-13.08c-4.592-0.84-8.955-3.635-13.506-4.207
		c-4.598-0.576-7.441,1.809-13.361,3.684c-3.771,1.191-7.721-0.912-11.343-2.42c-2.247-0.934-4.405-1.404-6.198-1.395
		c-5.654,0.037-8.561,3.967-14.057,4.229l-0.296-0.176L0.584,59.088v2.027c0,0.008,0,0.018,0.001,0.025
		c0.002,0.047,0.007,0.092,0.009,0.139c0.004,0.031,0.005,0.061,0.008,0.092c0.004,0.045,0.011,0.09,0.016,0.137
		c0.004,0.029,0.008,0.061,0.012,0.09c0.007,0.045,0.016,0.09,0.023,0.133c0.005,0.031,0.01,0.063,0.016,0.092
		c0.008,0.043,0.02,0.088,0.028,0.131c0.007,0.029,0.014,0.059,0.021,0.092c0.012,0.041,0.023,0.082,0.035,0.125
		c0.009,0.031,0.017,0.059,0.025,0.09c0.013,0.041,0.026,0.082,0.039,0.123c0.011,0.029,0.021,0.061,0.031,0.088
		c0.014,0.041,0.029,0.082,0.045,0.121c0.012,0.029,0.022,0.059,0.035,0.086c0.016,0.041,0.033,0.08,0.05,0.117
		c0.013,0.029,0.026,0.059,0.038,0.086c0.018,0.037,0.037,0.076,0.056,0.111c0.015,0.029,0.029,0.059,0.044,0.086
		c0.02,0.037,0.039,0.072,0.061,0.107c0.016,0.029,0.031,0.057,0.047,0.084c0.021,0.035,0.043,0.07,0.064,0.105
		c0.018,0.027,0.035,0.055,0.052,0.082c0.023,0.033,0.046,0.064,0.069,0.098c0.018,0.029,0.037,0.055,0.056,0.082
		c0.024,0.033,0.048,0.064,0.072,0.096c0.021,0.025,0.041,0.053,0.062,0.078c0.024,0.029,0.05,0.061,0.075,0.09
		c0.022,0.025,0.044,0.051,0.066,0.078c0.025,0.029,0.052,0.057,0.078,0.086c0.023,0.023,0.047,0.049,0.071,0.074
		c0.026,0.027,0.054,0.055,0.08,0.08c0.025,0.025,0.051,0.049,0.076,0.074c0.027,0.025,0.056,0.051,0.084,0.076
		c0.025,0.023,0.053,0.045,0.079,0.068c0.028,0.023,0.058,0.047,0.087,0.072c0.027,0.021,0.055,0.045,0.083,0.064
		c0.03,0.023,0.06,0.047,0.089,0.068s0.059,0.041,0.088,0.063c0.031,0.021,0.062,0.043,0.092,0.063
		c0.031,0.02,0.062,0.041,0.093,0.061c0.03,0.018,0.062,0.037,0.092,0.057c0.032,0.018,0.064,0.037,0.097,0.057
		c0.031,0.016,0.063,0.033,0.096,0.051s0.066,0.035,0.1,0.053c0.032,0.014,0.064,0.031,0.096,0.045
		c0.035,0.018,0.07,0.035,0.105,0.049c0.032,0.016,0.064,0.029,0.097,0.043c0.036,0.016,0.073,0.029,0.11,0.043
		c0.032,0.012,0.064,0.025,0.097,0.037c0.038,0.016,0.077,0.027,0.114,0.039c0.033,0.01,0.065,0.021,0.098,0.031
		c0.039,0.014,0.079,0.023,0.119,0.033c0.032,0.012,0.064,0.02,0.098,0.029c0.041,0.01,0.082,0.02,0.124,0.027
		c0.032,0.008,0.063,0.016,0.096,0.021c0.043,0.01,0.087,0.016,0.13,0.023c0.031,0.006,0.063,0.012,0.096,0.016
		c0.045,0.008,0.092,0.012,0.14,0.018c0.028,0.004,0.058,0.01,0.087,0.012c0.053,0.006,0.105,0.01,0.159,0.014
		c0.024,0,0.048,0.004,0.071,0.004c0.078,0.004,0.156,0.006,0.236,0.006c0.012,0,0.023,0.045,0.036,0.045l19.589-0.016
		c0.537,0,1.084,0.098,1.61,0.275c0.298,0.102,0.591,0.227,0.87,0.375c0.007,0.004,0.014,0.01,0.021,0.012
		c0.277,0.148,0.541,0.32,0.79,0.51c0.013,0.008,0.024,0.018,0.036,0.029c0.227,0.176,0.439,0.369,0.635,0.572
		c0.713,0.756,1.189,1.695,1.238,2.711h0.002c0.094-1.92,1.682-3.576,3.547-4.209c0.523-0.178,1.066-0.275,1.605-0.275l19.588,0.016
		c0.012,0,0.023-0.043,0.037-0.043c0.398,0,0.785-0.053,1.152-0.146c0.148-0.039,0.293-0.084,0.434-0.135
		c0.143-0.053,0.279-0.111,0.414-0.176C58.348,64.334,59.416,62.752,59.416,60.92z"/>
	<path fill="#FFFFFF" d="M14.984,39.873c1.793-0.012,3.951,0.461,6.199,1.395c3.623,1.508,7.572,3.611,11.342,2.42
		c5.922-1.873,8.764-4.26,13.361-3.682c4.541,0.568,8.889,3.418,13.471,4.262v0.006v0.045l0.033-0.018h0.021v-3.432l-0.006-0.018
		l-0.055-0.043v0.037c-2.965-1.996-9.344-7.23-12.336-10.5l-3.096-3.468l0.086,1.618l-1.879-1.434l-0.768,1.466l-2.631-0.899
		l4.295,3.248l-7.029-4.057l0.223,2.607l-3.791-3.584l-1.068,2.539l-2.953-1.96l3.217,4.03l-6.834-5.135L24.773,28.1l-2.031-2.988
		l-2.125,4.274l-0.264-4.055l-2.924,2.741l0.939-3.711l-1.802,3.023l0.524-2.33L14.5,28.343
		c-3.765,4.796-9.924,10.526-13.881,12.509l-0.006,3.063l0.316,0.188C6.424,43.84,9.332,39.91,14.984,39.873z"/>
	<path fill="#FFFFFF" d="M22.83,14.777c-0.154-0.813-0.617-1.614-0.857-1.767c-0.24,0.153-0.697,0.954-0.852,1.767
		c-0.236-0.227-0.473-0.454-0.709-0.681c-0.487,1.052,0.572,3.515,0.965,4.688h1.196c0.394-1.173,1.452-3.637,0.965-4.688
		C23.303,14.323,23.066,14.55,22.83,14.777z"/>
	<path fill="#FFFFFF" d="M42.389,19.563c-0.156-0.813-0.617-1.614-0.857-1.767c-0.242,0.153-0.697,0.954-0.852,1.767
		c-0.236-0.228-0.473-0.455-0.709-0.682c-0.488,1.052,0.57,3.516,0.965,4.688h1.197c0.393-1.173,1.451-3.637,0.965-4.688
		C42.861,19.108,42.625,19.335,42.389,19.563z"/>
	<path fill="#FFFFFF" d="M32.697,17.452c-0.154-0.813-0.617-1.615-0.859-1.767c-0.238,0.152-0.697,0.954-0.851,1.767
		c-0.236-0.228-0.473-0.455-0.708-0.682c-0.488,1.052,0.57,3.515,0.965,4.688h1.195c0.395-1.173,1.453-3.636,0.965-4.688
		C33.17,16.997,32.932,17.224,32.697,17.452z"/>
	<path fill="#FFFFFF" d="M44.146,26.112c1.549,1.956,3.473,4.389,5.33,6.051l0.266,0.238l0.107-0.341
		c0.629-2.008,0.947-4.1,0.947-6.22c0-11.47-9.33-20.8-20.801-20.8c-11.468,0-20.797,9.331-20.797,20.8
		c0,2.118,0.338,4.129,1.064,6.331l0.127,0.385l0.373-0.432c0.739-0.856,2.704-3.132,4.672-5.682
		c2.352-3.045,4.656-6.224,5.367-7.249l0.063-0.09l-0.915-3.132c-0.157-0.438-0.224-0.905-0.193-1.349
		c0.03-0.448,0.255-0.918,0.495-1.346l0.719,0.645l0.116-0.321c0.194-0.535,0.505-0.951,0.95-1.268
		c0.45,0.305,0.753,0.711,0.949,1.268l0.113,0.32l0.715-0.627c0.264,0.449,0.486,0.92,0.516,1.385
		c0.024,0.408-0.041,0.846-0.195,1.296l-1.197,3.211l0.048,0.091c1.05,1.978,2.231,4.093,4.11,6.295l0.145,0.17l0.174-0.139
		c1.604-1.284,2.746-2.444,3.495-3.548l0.065-0.097l-1.193-3.319c-0.157-0.439-0.225-0.905-0.193-1.349
		c0.031-0.448,0.254-0.917,0.496-1.345l0.718,0.645l0.116-0.321c0.193-0.536,0.506-0.952,0.951-1.269
		c0.449,0.306,0.754,0.712,0.949,1.268l0.111,0.321l0.715-0.628c0.266,0.449,0.488,0.92,0.518,1.386
		c0.023,0.407-0.043,0.845-0.197,1.3l-1.17,3.32l0.082,0.1c1.549,1.894,2.875,3.363,4.695,4.831l0.145,0.116l0.145-0.117
		c0.855-0.694,1.717-1.609,2.713-2.884l0.078-0.1l-0.045-0.12c-0.09-0.25-0.213-0.551-0.344-0.871
		c-0.445-1.085-1.051-2.572-0.988-3.482c0.031-0.449,0.256-0.918,0.496-1.346l0.719,0.645l0.113-0.32
		c0.195-0.536,0.506-0.952,0.953-1.27c0.449,0.306,0.752,0.713,0.947,1.269l0.113,0.321l0.715-0.628
		c0.266,0.448,0.486,0.92,0.518,1.386c0.023,0.402-0.045,0.853-0.195,1.295l-1.203,3.22l0.086,0.102
		C43.016,24.682,43.564,25.376,44.146,26.112z M44.086,20.945c0.176-0.515,0.25-1.011,0.221-1.479
		c-0.041-0.649-0.371-1.265-0.725-1.833l-0.143-0.23l-0.627,0.55c-0.254-0.547-0.627-0.966-1.141-1.276l-0.121-0.074L41.43,16.68
		c-0.504,0.322-0.877,0.739-1.129,1.271l-0.643-0.576l-0.141,0.241c-0.316,0.533-0.656,1.154-0.701,1.79
		c-0.07,1.017,0.535,2.498,1.021,3.688c0.109,0.266,0.211,0.519,0.295,0.735c-0.885,1.123-1.658,1.953-2.418,2.591
		c-1.684-1.376-2.947-2.772-4.402-4.546l1.086-3.078c0.176-0.515,0.25-1.013,0.221-1.479c-0.039-0.648-0.371-1.264-0.725-1.832
		l-0.143-0.23l-0.625,0.55c-0.254-0.547-0.629-0.966-1.141-1.277l-0.123-0.074l-0.119,0.077c-0.506,0.322-0.879,0.74-1.131,1.271
		l-0.643-0.577l-0.143,0.242c-0.314,0.534-0.654,1.157-0.699,1.79c-0.035,0.507,0.041,1.039,0.221,1.537l1.113,3.098
		c-0.695,0.997-1.732,2.05-3.162,3.211c-1.738-2.071-2.823-3.999-3.861-5.949l1.128-3.025c0.175-0.513,0.249-1.011,0.22-1.479
		c-0.039-0.648-0.371-1.264-0.725-1.833l-0.143-0.23l-0.625,0.551c-0.252-0.552-0.621-0.961-1.142-1.277l-0.122-0.074l-0.119,0.077
		c-0.506,0.321-0.877,0.74-1.129,1.271l-0.643-0.577l-0.143,0.241c-0.315,0.534-0.656,1.157-0.699,1.791
		c-0.035,0.507,0.04,1.04,0.215,1.524l0.85,2.908c-0.758,1.084-3.039,4.224-5.291,7.14c-1.832,2.374-3.663,4.511-4.496,5.478
		c-0.626-2.003-0.918-3.856-0.918-5.798c0-11.216,9.123-20.341,20.338-20.341c11.217,0,20.342,9.125,20.342,20.341
		c0,1.952-0.275,3.88-0.822,5.736c-1.744-1.625-3.547-3.903-5.01-5.75c-0.547-0.694-1.068-1.353-1.531-1.907L44.086,20.945z"/>
	<polygon fill="#FFFFFF" points="28.264,0.812 23.713,1.536 26.308,3.109 	"/>
	<polygon fill="#FFFFFF" points="36.246,1.535 31.697,0.804 33.672,3.107 	"/>
	<polygon fill="#FFFFFF" points="43.688,4.766 39.602,2.636 40.748,5.444 	"/>
	<polygon fill="#FFFFFF" points="49.719,10.169 46.512,6.86 46.713,9.887 	"/>
	<polygon fill="#FFFFFF" points="51.771,13.102 51.002,16.035 53.76,17.257 	"/>
	<polygon fill="#FFFFFF" points="55.34,25.152 54.752,20.582 53.102,23.127 	"/>
	<polygon fill="#FFFFFF" points="55.244,28.566 52.883,30.471 54.379,33.091 	"/>
	<polygon fill="#FFFFFF" points="20.395,2.64 16.303,4.759 19.26,5.436 	"/>
	<polygon fill="#FFFFFF" points="13.475,6.871 10.262,10.174 13.28,9.883 	"/>
	<path fill="#FFFFFF" d="M26.294,4.546l-4.276-2.604l-1.881,4.645C22.045,5.617,24.114,4.919,26.294,4.546z"/>
	<path fill="#FFFFFF" d="M14.723,5.753l-0.304,5.042c1.521-1.557,3.272-2.888,5.2-3.936L14.723,5.753z"/>
	<path fill="#FFFFFF" d="M14.188,11.034l-5.036,0.474l1.287,4.92C11.414,14.441,12.683,12.624,14.188,11.034z"/>
	<path fill="#FFFFFF" d="M51.619,23.46c0.098,0.834,0.148,1.683,0.148,2.542c0,1.383-0.131,2.735-0.379,4.047l-0.033-0.058
		c-0.211,1.052-0.504,2.099-0.881,3.137c0.697,0.632,1.406,1.253,2.121,1.865l1.289-0.465l-2.455-4.404l0,0l4.014-3.201
		L51.619,23.46z"/>
	<path fill="#FFFFFF" d="M51.596,23.26l2.83-4.318l-4.662-2.072C50.682,18.856,51.313,21.004,51.596,23.26z"/>
	<path fill="#FFFFFF" d="M50.922,11.61l-5.041-0.493c1.5,1.602,2.764,3.429,3.729,5.427L50.922,11.61z"/>
	<path fill="#FFFFFF" d="M45.543,10.765l-0.324-5.057l-4.893,1.126C42.26,7.879,44.016,9.208,45.543,10.765z"/>
	<path fill="#FFFFFF" d="M39.789,6.554l-1.912-4.647l-4.258,2.625C35.803,4.899,37.877,5.59,39.789,6.554z"/>
	<path fill="#FFFFFF" d="M29.995,4.231c1.11,0,2.2,0.083,3.263,0.244l-3.242-3.816l-3.238,3.81
		C27.827,4.313,28.902,4.231,29.995,4.231z"/>
</g>
</svg>
