<?xml version="1.0" encoding="utf-8"?>
<!-- Generator: Adobe Illustrator 15.1.0, SVG Export Plug-In . SVG Version: 6.00 Build 0)  -->
<!DOCTYPE svg PUBLIC "-//W3C//DTD SVG 1.1//EN" "http://www.w3.org/Graphics/SVG/1.1/DTD/svg11.dtd">
<svg version="1.1" id="Layer_1" xmlns="http://www.w3.org/2000/svg" xmlns:xlink="http://www.w3.org/1999/xlink" x="0px" y="0px"
	 width="50px" height="50px" viewBox="39 39 50 50" enable-background="new 39 39 50 50" xml:space="preserve">
<g>
	<path fill="#FFFFFF" d="M63.926,42.125C75.987,42.125,85.8,51.938,85.8,64c0,12.062-9.813,21.875-21.874,21.875
		c-12.062,0-21.875-9.813-21.875-21.875C42.051,51.938,51.864,42.125,63.926,42.125 M63.926,39c-13.807,0-25,11.193-25,25
		c0,13.807,11.193,25,25,25c13.807,0,25-11.193,25-25C88.926,50.193,77.732,39,63.926,39L63.926,39z"/>
</g>
<g>
	<path fill="#FFFFFF" d="M69.712,65.441c0.797-0.798,0.794-2.093-0.005-2.889l-8.678-8.652c-0.799-0.797-2.094-0.795-2.89,0.005l0,0
		c-0.797,0.799-0.794,2.094,0.004,2.89l8.679,8.651C67.621,66.244,68.915,66.241,69.712,65.441L69.712,65.441z"/>
	<path fill="#FFFFFF" d="M69.712,62.559c0.797,0.797,0.794,2.092-0.005,2.888l-8.678,8.652c-0.799,0.797-2.094,0.794-2.89-0.005l0,0
		c-0.797-0.8-0.794-2.094,0.004-2.89l8.679-8.651C67.621,61.756,68.915,61.758,69.712,62.559L69.712,62.559z"/>
</g>
</svg>
