<?xml version="1.0" encoding="utf-8"?>
<!-- Generator: Adobe Illustrator 16.2.0, SVG Export Plug-In . SVG Version: 6.00 Build 0)  -->
<!DOCTYPE svg PUBLIC "-//W3C//DTD SVG 1.1//EN" "http://www.w3.org/Graphics/SVG/1.1/DTD/svg11.dtd">
<svg version="1.1" id="Layer_1" xmlns="http://www.w3.org/2000/svg" xmlns:xlink="http://www.w3.org/1999/xlink" x="0px" y="0px"
	 width="63.992px" height="61.992px" viewBox="0 0 63.992 61.992" enable-background="new 0 0 63.992 61.992" xml:space="preserve">
<circle fill="#CD5427" cx="31.996" cy="30.996" r="26.167"/>
<path fill="#FFFFFF" d="M26.193,23.247c0,0,0.838,2.514,0,4.54s-3.753,5.449-3.698,9.92c0.047,3.753,2.231,6.959,6.003,6.959
	s4.728-6.819,3.47-10.103c0,0,2.396,2.261,2.543,4.144c0.175,2.235-0.924,3.743,0.054,5.21s5.813,1.265,6.929-4.952
	c0.123-4.82-3.494-5.449-3.635-11.317l0.279-1.537c0,0-2.584,1.211-2.025,3.703c-0.488-0.07-1.746-0.42-1.467-2.236
	s1.467-2.863,0.979-5.798c-0.316-1.892-1.957-4.168-3.145-4.61c-0.14,0.419,1.264,3.842-0.485,5.449
	c-1.75,1.606-2.938,3.912-3.077,6.426C28.956,28.575,28.918,24.783,26.193,23.247z"/>
</svg>
