<?xml version="1.0" encoding="utf-8"?>
<!-- Generator: Adobe Illustrator 16.2.0, SVG Export Plug-In . SVG Version: 6.00 Build 0)  -->
<!DOCTYPE svg PUBLIC "-//W3C//DTD SVG 1.1//EN" "http://www.w3.org/Graphics/SVG/1.1/DTD/svg11.dtd">
<svg version="1.1" id="Layer_1" xmlns="http://www.w3.org/2000/svg" xmlns:xlink="http://www.w3.org/1999/xlink" x="0px" y="0px"
	 width="63.992px" height="61.992px" viewBox="0 0 63.992 61.992" enable-background="new 0 0 63.992 61.992" xml:space="preserve">
<circle fill="#8DC63F" cx="32.257" cy="30.218" r="26.166"/>
<g>
	<path fill="#FFFFFF" d="M50.091,33.051c0.155-0.952,0.239-1.929,0.239-2.925c0-8.734-6.145-16.049-14.334-17.881v3.095
		c6.519,1.766,11.334,7.717,11.334,14.786c0,0.712-0.056,1.409-0.154,2.094l-2.827-0.806l2.171,8.653l6.409-6.207L50.091,33.051z"/>
	<path fill="#FFFFFF" d="M16.662,30.126c0-6.526,4.108-12.093,9.869-14.299l0.428,3.142l7.053-5.465l-8.258-3.376l0.362,2.658
		c-7.229,2.457-12.454,9.29-12.454,17.34c0,1.989,0.328,3.9,0.917,5.694l2.636-1.674C16.865,32.862,16.662,31.519,16.662,30.126z"/>
	<path fill="#FFFFFF" d="M31.996,45.46c-2.887,0-5.578-0.818-7.885-2.211l1.748-1.916l-8.714-1.912l2.701,8.503l2.22-2.434
		c2.864,1.864,6.264,2.97,9.93,2.97c5.275,0,10.024-2.253,13.372-5.832l-2.569-1.632C40.024,43.753,36.206,45.46,31.996,45.46z"/>
</g>
</svg>
